# xmcd
#
# Track frame offsets:
# 150
# 19927
# 35707
# 59477
# 78762
# 98030
# 115907
# 132105
# 145330
# 159787
# 178900
# 199602
# 215220
# 234115
# 247572
# 262040
# 278017
#
# Disc length: 3954 seconds
#
#
# Revision: 0
# Processed by: cddbd v1.5.1PL0 Copyright (c) Steve Scherf et al.
# Submitted via: FreeRIP 2.943 
#
DISCID=e60f7011
DTITLE=Limao com Mel - Um amor de novela
DYEAR=2005
DGENRE=Forro
TTITLE0=Um amor de novela
TTITLE1=Bum Bum Bum Aguenta Coracao
TTITLE2=Brinquedo de Amor
TTITLE3=Esse amor e 1000
TTITLE4=Nossa musica never say good bye
TTITLE5=Acorrentado em voce
TTITLE6=Cinco Sentido
TTITLE7=Balanco da Sanfona
TTITLE8=Ligacao no Radio
TTITLE9=Baby Good Bye
TTITLE10=Broken Wings
TTITLE11=Game Over
TTITLE12=Invernos e Veroes
TTITLE13=Mude o Canal
TTITLE14=Prorrogacao
TTITLE15=Ritmo Bom
TTITLE16=Quem da mais
EXTD=
EXTT0=
EXTT1=
EXTT2=
EXTT3=
EXTT4=
EXTT5=
EXTT6=
EXTT7=
EXTT8=
EXTT9=
EXTT10=
EXTT11=
EXTT12=
EXTT13=
EXTT14=
EXTT15=
EXTT16=
PLAYORDER=
